<svg version="1.1" id="Layer_1" xmlns="http://www.w3.org/2000/svg" xmlns:xlink="http://www.w3.org/1999/xlink" x="0px" y="0px"
	 width="100%" viewBox="0 0 64 64" enable-background="new 0 0 64 64" xml:space="preserve">
<path fill="#000000" opacity="1.000000" stroke="none" 
	d="
M32.000000,65.000000 
	C21.724230,65.000000 11.448462,65.000000 1.000000,65.000000 
	C1.000000,49.312801 1.000000,33.625057 1.244767,17.140274 
	C3.060560,18.162607 4.631586,19.981979 6.480309,22.122948 
	C8.133460,19.729378 8.976315,18.509022 10.810233,15.853722 
	C6.730149,15.498658 3.865074,15.249329 1.000000,15.000000 
	C1.000000,10.345164 1.000000,5.690328 1.000000,1.017746 
	C22.267406,1.017746 43.534828,1.017746 64.901123,1.017746 
	C64.901123,22.212927 64.901123,43.426468 64.901123,65.000000 
	C54.981979,65.000000 44.959648,65.000000 34.110069,64.725510 
	C34.189800,61.355270 35.096783,58.259529 36.330902,55.088089 
	C37.099575,54.952709 37.541111,54.893028 38.359840,54.907318 
	C41.944752,56.423134 45.152466,57.864979 49.188595,59.679195 
	C48.226723,55.721016 47.530560,52.856236 46.959839,49.700310 
	C47.736446,48.980038 48.387615,48.550907 49.488880,48.066200 
	C52.862995,48.010620 55.787010,48.010620 60.049129,48.010620 
	C58.539795,46.125210 57.680973,45.087898 56.861816,44.020157 
	C55.836243,42.683338 54.843250,41.321522 53.912766,39.609528 
	C56.935478,36.966709 59.881615,34.684853 63.535446,31.854874 
	C61.320789,31.127388 59.509701,30.749540 57.913879,29.944805 
	C56.434235,29.198656 55.184608,27.996372 53.909531,26.621946 
	C55.500946,23.217039 57.016533,20.185123 58.915958,16.385338 
	C57.249878,16.550249 55.878685,16.623453 54.529121,16.834785 
	C52.685047,17.123558 50.857437,17.517435 48.909859,17.578922 
	C48.204498,17.145208 47.612041,16.998827 47.010612,16.404823 
	C47.001637,12.694476 47.001637,9.431750 47.001637,4.548086 
	C44.882599,6.538792 43.959423,7.644101 42.814369,8.423400 
	C41.274670,9.471288 39.563755,10.267599 37.706589,11.098158 
	C37.486851,11.024420 37.045368,10.883061 36.907158,10.568789 
	C35.058407,7.646149 33.347866,5.037783 30.895527,1.298268 
	C29.779051,4.975672 28.889851,7.904488 27.616146,10.905666 
	C19.234241,12.760728 13.391476,17.486456 11.039290,25.196114 
	C7.149254,37.946323 11.822877,50.489281 27.140934,55.482422 
	C28.854187,58.866695 30.427094,61.933346 32.000000,65.000000 
M6.995320,55.701115 
	C6.093658,61.776894 12.519502,56.518124 13.040197,60.493156 
	C14.134651,57.783783 14.953302,55.757175 15.619277,54.108528 
	C14.256397,52.490364 12.958514,50.949371 11.744743,49.508247 
	C10.145212,50.339935 8.365766,51.054958 6.885645,52.168015 
	C6.463644,52.485363 6.910876,53.958595 6.995320,55.701115 
M13.107571,4.488539 
	C12.146975,5.661083 11.186378,6.833627 11.017960,7.039205 
	C12.321154,8.260687 13.647182,9.503572 14.973208,10.746455 
	C14.591105,11.124625 14.209001,11.502795 13.826896,11.880964 
	C15.451550,11.431145 17.076202,10.981325 18.046104,10.712789 
	C18.328926,8.707202 18.560286,7.066548 18.789913,5.438175 
	C17.126577,4.987293 15.442504,4.530788 13.107571,4.488539 
z"/>
<path fill="#FFA726" opacity="1.000000" stroke="none" 
	d="
M32.333332,65.000000 
	C30.427094,61.933346 28.854187,58.866695 27.551500,55.420010 
	C29.204451,54.970097 30.587181,54.900215 32.371929,54.883762 
	C33.850555,55.012722 34.927158,55.088257 36.003761,55.163788 
	C35.096783,58.259529 34.189800,61.355270 33.641411,64.725510 
	C33.555553,65.000000 33.111111,65.000000 32.333332,65.000000 
z"/>
<path fill="#B39CDA" opacity="1.000000" stroke="none" 
	d="
M1.000000,15.333333 
	C3.865074,15.249329 6.730149,15.498658 10.810233,15.853722 
	C8.976315,18.509022 8.133460,19.729378 6.480309,22.122948 
	C4.631586,19.981979 3.060560,18.162607 1.244767,16.671618 
	C1.000000,16.555555 1.000000,16.111111 1.000000,15.333333 
z"/>
<path fill="#FFF9C4" opacity="1.000000" stroke="none" 
	d="
M36.330902,55.088089 
	C34.927158,55.088257 33.850555,55.012722 32.214886,54.599434 
	C29.446898,50.892925 27.237972,47.524174 25.446985,44.092079 
	C27.240459,43.833103 28.615992,43.637470 29.991526,43.441841 
	C28.858753,42.201393 27.802748,42.324760 26.971510,41.949818 
	C25.266516,41.180756 23.682013,40.144569 22.047905,39.218353 
	C23.069618,37.943085 24.011192,36.590797 25.138891,35.417381 
	C26.010618,34.510326 27.115534,33.827381 28.436602,32.894707 
	C32.210754,27.411360 31.619099,25.687828 25.038914,21.510880 
	C27.374678,17.830658 29.691576,14.499839 32.343491,11.234566 
	C34.134132,11.161094 35.589748,11.022078 37.045368,10.883062 
	C37.045368,10.883061 37.486851,11.024420 37.912636,11.373633 
	C41.232147,13.432714 44.125866,15.142580 47.019588,16.852446 
	C47.612041,16.998827 48.204498,17.145208 48.965858,17.931753 
	C50.701077,21.379591 52.267387,24.187265 53.833698,26.994938 
	C55.184608,27.996372 56.434235,29.198656 57.913879,29.944805 
	C59.509701,30.749540 61.320789,31.127388 63.535446,31.854874 
	C59.881615,34.684853 56.935478,36.966709 53.649391,39.813324 
	C51.885895,42.959312 50.462337,45.540546 49.038784,48.121780 
	C48.387615,48.550907 47.736446,48.980038 46.621681,49.761589 
	C43.432941,51.687122 40.707790,53.260231 37.982643,54.833344 
	C37.541111,54.893028 37.099575,54.952709 36.330902,55.088089 
M44.127041,40.621994 
	C44.571686,39.822891 45.458752,38.970608 45.370403,38.235565 
	C45.176548,36.622704 44.169724,35.089321 44.068741,33.487309 
	C43.853256,30.068953 44.002823,26.627586 44.002823,23.173128 
	C39.573612,23.467346 30.998056,35.491890 31.649508,40.015877 
	C34.918415,40.015877 38.228107,40.015877 41.579327,40.015877 
	C41.891323,41.348923 42.147511,42.443501 42.637012,44.534954 
	C43.397064,42.803558 43.704376,42.103504 44.127041,40.621994 
z"/>
<path fill="#BA68C8" opacity="1.000000" stroke="none" 
	d="
M25.029045,44.155426 
	C27.237972,47.524174 29.446898,50.892925 31.812866,54.546005 
	C30.587181,54.900215 29.204451,54.970097 27.411156,55.102386 
	C11.822877,50.489281 7.149254,37.946323 11.039290,25.196114 
	C13.391476,17.486456 19.234241,12.760728 28.013962,10.968344 
	C29.867012,11.028780 30.937742,11.098901 32.008472,11.169022 
	C29.691576,14.499839 27.374678,17.830658 24.668068,21.566063 
	C22.232931,22.812925 20.187508,23.655203 18.142082,24.497480 
	C18.295498,24.861189 18.448912,25.224897 18.602325,25.588606 
	C20.016754,25.384033 21.431181,25.179461 22.899500,25.399609 
	C22.756893,28.689314 22.560392,31.554298 22.101898,34.648617 
	C18.120909,36.622307 16.311243,39.290039 17.468502,43.779190 
	C20.113829,43.910828 22.571438,44.033127 25.029045,44.155426 
z"/>
<path fill="#B39DDB" opacity="1.000000" stroke="none" 
	d="
M6.977415,55.301449 
	C6.910876,53.958595 6.463644,52.485363 6.885645,52.168015 
	C8.365766,51.054958 10.145212,50.339935 11.744743,49.508247 
	C12.958514,50.949371 14.256397,52.490364 15.619277,54.108528 
	C14.953302,55.757175 14.134651,57.783783 13.040197,60.493156 
	C12.519502,56.518124 6.093658,61.776894 6.977415,55.301449 
z"/>
<path fill="#FFD550" opacity="1.000000" stroke="none" 
	d="
M47.010612,16.404823 
	C44.125866,15.142580 41.232147,13.432714 38.132378,11.447371 
	C39.563755,10.267599 41.274670,9.471288 42.814369,8.423400 
	C43.959423,7.644101 44.882599,6.538792 47.001637,4.548086 
	C47.001637,9.431750 47.001637,12.694476 47.010612,16.404823 
z"/>
<path fill="#FFD550" opacity="1.000000" stroke="none" 
	d="
M38.359840,54.907314 
	C40.707790,53.260231 43.432941,51.687122 46.496243,50.052734 
	C47.530560,52.856236 48.226723,55.721016 49.188595,59.679195 
	C45.152466,57.864979 41.944752,56.423134 38.359840,54.907314 
z"/>
<path fill="#FFF69E" opacity="1.000000" stroke="none" 
	d="
M53.909531,26.621946 
	C52.267387,24.187265 50.701077,21.379591 49.078766,18.219086 
	C50.857437,17.517435 52.685047,17.123558 54.529121,16.834785 
	C55.878685,16.623453 57.249878,16.550249 58.915958,16.385338 
	C57.016533,20.185123 55.500946,23.217039 53.909531,26.621946 
z"/>
<path fill="#FFA826" opacity="1.000000" stroke="none" 
	d="
M32.343491,11.234566 
	C30.937742,11.098901 29.867012,11.028780 28.398466,10.895982 
	C28.889851,7.904488 29.779051,4.975672 30.895527,1.298268 
	C33.347866,5.037783 35.058407,7.646149 36.907158,10.568789 
	C35.589748,11.022078 34.134132,11.161094 32.343491,11.234566 
z"/>
<path fill="#B49DDA" opacity="1.000000" stroke="none" 
	d="
M13.433001,4.281412 
	C15.442504,4.530788 17.126577,4.987293 18.789913,5.438175 
	C18.560286,7.066548 18.328926,8.707202 18.046104,10.712789 
	C17.076202,10.981325 15.451550,11.431145 13.826896,11.880964 
	C14.209001,11.502795 14.591105,11.124625 14.973208,10.746455 
	C13.647182,9.503572 12.321154,8.260687 11.017960,7.039205 
	C11.186378,6.833627 12.146975,5.661083 13.433001,4.281412 
z"/>
<path fill="#FFF59D" opacity="1.000000" stroke="none" 
	d="
M49.488880,48.066200 
	C50.462337,45.540546 51.885895,42.959312 53.572823,40.174286 
	C54.843250,41.321522 55.836243,42.683338 56.861816,44.020157 
	C57.680973,45.087898 58.539795,46.125210 60.049129,48.010620 
	C55.787010,48.010620 52.862995,48.010620 49.488880,48.066200 
z"/>
<path fill="#AE1658" opacity="1.000000" stroke="none" 
	d="
M44.069366,41.012722 
	C43.704376,42.103504 43.397064,42.803558 42.637012,44.534954 
	C42.147511,42.443501 41.891323,41.348923 41.579327,40.015877 
	C38.228107,40.015877 34.918415,40.015877 31.649508,40.015877 
	C30.998056,35.491890 39.573612,23.467346 44.002823,23.173128 
	C44.002823,26.627586 43.853256,30.068953 44.068741,33.487309 
	C44.169724,35.089321 45.176548,36.622704 45.370403,38.235565 
	C45.458752,38.970608 44.571686,39.822891 44.069366,41.012722 
M37.138844,31.630871 
	C35.910339,33.639576 34.681839,35.648281 33.402607,37.739929 
	C36.419064,37.739929 39.018829,37.739929 41.519875,37.739929 
	C41.519875,34.015373 41.519875,30.569149 41.519875,25.828581 
	C39.668583,28.269392 38.625092,29.645170 37.138844,31.630871 
z"/>
<path fill="#AD1659" opacity="1.000000" stroke="none" 
	d="
M25.446985,44.092079 
	C22.571438,44.033127 20.113829,43.910828 17.468502,43.779190 
	C16.311243,39.290039 18.120909,36.622307 22.403133,34.529327 
	C24.298410,33.413834 25.630461,32.646954 27.124247,32.103085 
	C27.562916,32.565662 27.839849,32.805229 28.116781,33.044800 
	C27.115534,33.827381 26.010618,34.510326 25.138891,35.417381 
	C24.011192,36.590797 23.069618,37.943085 22.047905,39.218353 
	C23.682013,40.144569 25.266516,41.180756 26.971510,41.949818 
	C27.802748,42.324760 28.858753,42.201393 29.991526,43.441841 
	C28.615992,43.637470 27.240459,43.833103 25.446985,44.092079 
z"/>
<path fill="#AE1859" opacity="1.000000" stroke="none" 
	d="
M28.436602,32.894707 
	C27.839849,32.805229 27.562916,32.565662 27.270222,31.787903 
	C27.583057,29.747950 28.669937,27.714731 28.072353,26.862101 
	C27.032249,25.378080 25.684753,22.391335 22.845608,24.974890 
	C21.431181,25.179461 20.016754,25.384033 18.602325,25.588606 
	C18.448912,25.224897 18.295498,24.861189 18.142082,24.497480 
	C20.187508,23.655203 22.232931,22.812925 24.649200,21.915466 
	C31.619099,25.687828 32.210754,27.411360 28.436602,32.894707 
z"/>
<path fill="#FFF8C3" opacity="1.000000" stroke="none" 
	d="
M22.899500,25.399609 
	C25.684753,22.391335 27.032249,25.378080 28.072353,26.862101 
	C28.669937,27.714731 27.583057,29.747950 27.108486,31.564892 
	C25.630461,32.646954 24.298410,33.413834 22.665127,34.299995 
	C22.560392,31.554298 22.756893,28.689314 22.899500,25.399609 
z"/>
<path fill="#FEF7C3" opacity="1.000000" stroke="none" 
	d="
M37.360222,31.325909 
	C38.625092,29.645170 39.668583,28.269392 41.519875,25.828581 
	C41.519875,30.569149 41.519875,34.015373 41.519875,37.739929 
	C39.018829,37.739929 36.419064,37.739929 33.402607,37.739929 
	C34.681839,35.648281 35.910339,33.639576 37.360222,31.325909 
z"/>
</svg>